<svg width="16" height="21" viewBox="0 0 16 21" fill="none" xmlns="http://www.w3.org/2000/svg">
<mask id="path-1-inside-1_48_229" fill="white">
<path d="M1 0H15C15.2652 0 15.5196 0.105357 15.7071 0.292893C15.8946 0.48043 16 0.734784 16 1V20.143C16.0001 20.2324 15.9763 20.3202 15.9309 20.3973C15.8855 20.4743 15.8204 20.5378 15.7421 20.5811C15.6639 20.6244 15.5755 20.6459 15.4861 20.6434C15.3968 20.641 15.3097 20.6146 15.234 20.567L8 16.03L0.766 20.566C0.690368 20.6135 0.603387 20.6399 0.514102 20.6424C0.424817 20.6449 0.336486 20.6235 0.258295 20.5803C0.180104 20.5371 0.114907 20.4738 0.0694828 20.3969C0.0240588 20.32 6.64708e-05 20.2323 0 20.143V1C0 0.734784 0.105357 0.48043 0.292893 0.292893C0.48043 0.105357 0.734784 0 1 0Z"/>
</mask>
<path d="M1 0V-1V0ZM15 0V-1V0ZM16 20.143H15L15 20.1443L16 20.143ZM15.234 20.567L15.766 19.7203L15.7653 19.7198L15.234 20.567ZM8 16.03L8.53132 15.1828L8.00006 14.8496L7.46876 15.1828L8 16.03ZM0.766 20.566L0.234759 19.7188L0.234 19.7193L0.766 20.566ZM0 20.143H-1L-1 20.1437L0 20.143ZM1 1H15V-1H1V1ZM15 1L15 1L16.4142 -0.414214C16.0391 -0.789287 15.5304 -1 15 -1V1ZM15 1L15 1H17C17 0.469569 16.7893 -0.0391394 16.4142 -0.414214L15 1ZM15 1V20.143H17V1H15ZM15 20.1443C14.9999 20.0549 15.0237 19.9671 15.0691 19.89L16.7927 20.9045C16.9288 20.6734 17.0003 20.41 17 20.1417L15 20.1443ZM15.0691 19.89C15.1145 19.8129 15.1796 19.7495 15.2579 19.7062L16.2264 21.456C16.4611 21.3261 16.6566 21.1357 16.7927 20.9045L15.0691 19.89ZM15.2579 19.7062C15.3361 19.6629 15.4245 19.6413 15.5139 19.6438L15.4584 21.6431C15.7266 21.6505 15.9918 21.5859 16.2264 21.456L15.2579 19.7062ZM15.5139 19.6438C15.6032 19.6463 15.6903 19.6727 15.766 19.7203L14.702 21.4137C14.9291 21.5564 15.1903 21.6356 15.4584 21.6431L15.5139 19.6438ZM15.7653 19.7198L8.53132 15.1828L7.46868 16.8772L14.7027 21.4142L15.7653 19.7198ZM7.46876 15.1828L0.234759 19.7188L1.29724 21.4132L8.53124 16.8772L7.46876 15.1828ZM0.234 19.7193C0.309629 19.6717 0.396609 19.6453 0.485898 19.6428L0.542306 21.642C0.810166 21.6345 1.07111 21.5553 1.298 21.4127L0.234 19.7193ZM0.485898 19.6428C0.575193 19.6403 0.663522 19.6618 0.741705 19.7049L-0.225115 21.4557C0.00945072 21.5853 0.27444 21.6496 0.542306 21.642L0.485898 19.6428ZM0.741705 19.7049C0.819889 19.7481 0.885089 19.8114 0.930516 19.8884L-0.791551 20.9055C-0.655275 21.1362 -0.459681 21.3262 -0.225115 21.4557L0.741705 19.7049ZM0.930516 19.8884C0.975942 19.9653 0.999933 20.0529 1 20.1423L-1 20.1437C-0.9998 20.4117 -0.927824 20.6747 -0.791551 20.9055L0.930516 19.8884ZM1 20.143V1H-1V20.143H1ZM1 1L1 1L-0.414213 -0.414214C-0.789286 -0.0391412 -1 0.469567 -1 1H1ZM1 1L1 1V-1C0.469567 -1 -0.0391407 -0.789286 -0.414213 -0.414214L1 1Z" fill="#A04747" mask="url(#path-1-inside-1_48_229)"/>
</svg>
